<svg width="31" height="28" viewBox="0 0 31 28" fill="none" xmlns="http://www.w3.org/2000/svg">
<path d="M25.4554 19.3595C25.8406 19.3595 26.1775 19.0962 26.2766 18.7214L28.9717 8.50266C29.037 8.25494 28.9885 7.99011 28.8396 7.78225C28.6907 7.57421 28.4571 7.44414 28.2029 7.42828L4.95034 5.98215L4.31977 2.07405C4.2764 1.80563 4.1087 1.57373 3.86797 1.44965L1.23684 0.0943839C0.819116 -0.120579 0.307137 0.0458225 0.0934072 0.466393C-0.120323 0.886963 0.0451738 1.40221 0.462898 1.61739L2.71148 2.77574L5.24859 18.5008L4.82202 21.2107C3.22501 21.4858 2.00547 22.8894 2.00547 24.5755C2.00547 26.4584 3.52614 27.9997 5.39528 27.9997C7.12611 27.9997 8.55742 26.6589 8.7594 25.0052H20.3592C20.5613 26.6589 21.9925 27.9997 23.7234 27.9997C25.5925 27.9997 27.1132 26.4631 27.1132 24.5801C27.1132 22.6973 25.5925 21.1726 23.7234 21.1726C22.3111 21.1726 21.0984 22.0398 20.5896 23.2944H8.5291C8.16224 22.3819 7.42948 21.69 6.51989 21.3666L6.83475 19.3595H25.4554ZM23.7234 22.8716C24.6555 22.8716 25.4139 23.6358 25.4139 24.5755C25.4139 25.515 24.6555 26.2796 23.7234 26.2796C22.7915 26.2796 22.033 25.515 22.033 24.5755C22.033 23.6358 22.7915 22.8716 23.7234 22.8716ZM7.08567 24.5755C7.08567 25.515 6.32742 26.2796 5.39528 26.2796C4.46314 26.2796 3.70469 25.515 3.70469 24.5755C3.70469 23.6358 4.46314 22.8716 5.39528 22.8716C6.32742 22.8716 7.08567 23.6358 7.08567 24.5755ZM5.22956 7.71587L27.0632 9.07492L24.802 17.6487H6.83164L5.22956 7.71587Z" fill="white"/>
</svg>
